<svg width="28" height="28" viewBox="0 0 28 28" fill="none" xmlns="http://www.w3.org/2000/svg" aria-label="Search icon" role="img"><title>Search icon</title><path fill-rule="evenodd" clip-rule="evenodd" d="M14 0.666672C6.63619 0.666672 0.666656 6.63621 0.666656 14C0.666656 21.3638 6.63619 27.3333 14 27.3333C17.2017 27.3333 20.1398 26.2048 22.4383 24.3239L25.0572 26.9428C25.5779 27.4635 26.4221 27.4635 26.9428 26.9428C27.4635 26.4221 27.4635 25.5779 26.9428 25.0572L24.3239 22.4383C26.2048 20.1398 27.3333 17.2017 27.3333 14C27.3333 6.63621 21.3638 0.666672 14 0.666672ZM3.33332 14C3.33332 8.10897 8.10895 3.33334 14 3.33334C19.891 3.33334 24.6667 8.10897 24.6667 14C24.6667 19.891 19.891 24.6667 14 24.6667C8.10895 24.6667 3.33332 19.891 3.33332 14Z" fill="currentColor"></path></svg>